<svg xmlns="http://www.w3.org/2000/svg" viewBox="0 0 1934 600">
  <path d="M1619.223 303.062c-5.729 1.129-13.238 5.329-17.508 9.791-2.727 2.85-99.025 167.644-108.89 186.343-1.807 3.425-2.274 5.938-2.287 12.304l-.017 8 22.876 39c12.582 21.45 23.793 40.013 24.914 41.25 3.184 3.516 7.341 2.973 11.47-1.5 2.696-2.92 154.098-263.619 162.299-279.46 2.202-4.255 2.512-10.598.643-13.154-.702-.96-3.065-2.16-5.25-2.667-4.934-1.144-82.387-1.062-88.25.093M210.5 304.236c-4.387 1.577-9.542 5.013-13.304 8.868C193.182 317.218 89.27 496.446 86.809 503.5c-1.973 5.658-2.221 9.576-.898 14.188 1.431 4.99 47.191 82.333 49.675 83.96 1.95 1.278 2.66 1.276 5.753-.016 1.989-.831 4.62-3.145 6.031-5.303 1.377-2.106 14.915-25.429 30.084-51.829 29.288-50.97 31.135-53.595 41.244-58.616l4.802-2.384 63.5-.5 63.5-.5 5.148-2.853c2.832-1.57 6.718-4.495 8.637-6.5 3.344-3.494 86.818-146.604 90.914-155.865 1.367-3.09 1.788-5.536 1.353-7.856-1.293-6.894 7.678-6.434-124.025-6.347-82.399.055-119.95.411-122.027 1.157m273.494-.302c-4.359 1.326-8.986 4.064-13.006 7.696-4.413 3.987-26.581 41.086-27.603 46.194-.843 4.217 1.162 8.746 4.481 10.12 1.881.78 16.25 1.032 47.664.836 44.364-.276 45.032-.31 49.546-2.535 8.122-4.002 12.381-8.636 20.585-22.398 6.182-10.371 8.909-13.959 12.901-16.977 8.518-6.439 18.384-8.697 23.215-5.313 1.756 1.229 2.223 2.535 2.223 6.209 0 4.069-1.347 7.034-10.75 23.659-11.846 20.944-16.236 26.272-25.054 30.405l-5.696 2.67-63.5.5-63.5.5-4.5 2.67c-8.307 4.929-12.403 10.579-31.049 42.83-25.02 43.276-25.531 44.511-20.496 49.545l2.454 2.455H621.126l5.531-2.708c3.042-1.49 7.198-4.326 9.235-6.303 2.391-2.32 18.976-29.995 46.77-78.042 23.686-40.946 43.801-75.887 44.702-77.647 2.587-5.061 2.159-10.744-.999-13.227-2.633-2.072-2.7-2.073-121.25-1.987-65.238.047-119.743.429-121.121.848m272.416 2.021c-3.251 1.625-7.789 4.887-10.085 7.25-2.805 2.886-18.515 29.195-47.89 80.197-47.489 82.454-47.222 81.902-42.102 87.022l2.576 2.576h91.772l5.912-2.954c3.251-1.625 7.57-4.663 9.597-6.75 2.145-2.21 19.948-32.008 42.595-71.296 40.538-70.324 43.201-74.349 52.336-79.11 5.981-3.117 16.327-3.335 18.537-.39 2.88 3.838 1.246 10.111-5.741 22.042-5.432 9.276-6.417 11.681-6.417 15.672 0 8.774-2.96 8.286 50.286 8.286H964.5l4.754-2.341c8.478-4.175 13.079-9.548 22.827-26.659 15.55-27.294 16.221-29.289 11.464-34.045l-2.454-2.455H762.319l-5.909 2.955m282.846-.494c-10.149 4.725-11.825 7.232-56.531 84.539-23.059 39.875-43.051 74.889-44.426 77.809-1.855 3.939-2.334 6.189-1.859 8.721 1.302 6.942-7.761 6.47 124.344 6.47h119.34l5.405-2.557c8.58-4.059 13.02-9.404 24.865-29.933 11.207-19.424 13.152-24.753 10.703-29.328-2.146-4.011-6.345-4.33-52.597-3.998l-44 .316-5.273 2.922c-7.835 4.341-11.446 8.383-19.139 21.429-3.896 6.606-8.795 13.459-11.133 15.571-8.31 7.508-20.349 10.792-25.732 7.021-1.704-1.193-2.223-2.548-2.223-5.802 0-3.572 1.762-7.329 11.111-23.693 11.981-20.97 15.296-25.191 23.241-29.595l5.148-2.853 63.5-.5 63.5-.5 6.11-3.315c3.361-1.823 7.703-4.973 9.649-7 1.945-2.027 12.651-19.435 23.79-38.685 17.566-30.357 20.313-35.675 20.712-40.09.418-4.626.209-5.288-2.285-7.25l-2.746-2.16-119.115.01-119.115.01-5.244 2.441m281.626-1.08c-5.071 1.812-9.849 4.924-13.518 8.803-2.972 3.144-86.402 146.281-90.42 155.13-2.605 5.739-2.45 9.271.539 12.26l2.483 2.483 46.767-.278 46.767-.279 4.676-2.39c9.264-4.736 11.781-8.533 52.439-79.095 25.708-44.615 40.249-68.863 42.911-71.552 7.847-7.928 21.267-11.88 26.355-7.76 3.481 2.819 3.122 8.854-.96 16.107-1.761 3.129-18.957 32.915-38.213 66.19-19.255 33.275-35.884 62.459-36.951 64.852-1.33 2.983-1.742 5.413-1.309 7.722 1.233 6.573.067 6.426 50.837 6.426h45.841l5.531-2.708c3.042-1.49 7.193-4.322 9.225-6.293 2.377-2.307 19.059-30.14 46.775-78.042 23.694-40.951 43.815-75.897 44.712-77.657 2.437-4.781 2.108-9.914-.824-12.845l-2.454-2.455-118.796.044c-94.512.035-119.534.308-122.413 1.337m423.528 1.574c-3.251 1.625-7.762 4.887-10.026 7.25-2.64 2.754-18.948 29.949-45.452 75.795-51.395 88.903-46.892 80.679-46.914 85.677-.014 3.334.514 4.596 2.617 6.25 2.578 2.029 3.615 2.073 48.34 2.073h45.706l5.912-2.954c3.251-1.625 7.549-4.663 9.55-6.75 3.435-3.584 86.904-146.652 91.151-156.235 2.46-5.553 1.508-10.855-2.294-12.771-1.899-.958-13.339-1.264-47.59-1.275l-45.091-.015-5.909 2.955M315.882 321.381c-5.051 1.805-9.834 4.913-13.547 8.803-2.561 2.683-64.537 108.551-71.436 122.026-2.459 4.804-2.421 9.268.101 11.79 2.995 2.995 11.152 2.725 17.804-.59 10.961-5.462 8.336-1.393 68.894-106.805 11.214-19.521 14.299-25.674 14.287-28.5-.009-1.983-.346-4.1-.75-4.705-2.271-3.401-9.007-4.287-15.353-2.019m830.783.166c-5.918 2.171-13.168 7.994-16.458 13.219-10.157 16.129-21.485 36.891-21.927 40.185-.664 4.946.965 7.746 5.18 8.91 6.494 1.793 16.658-1.977 23.331-8.655 3.594-3.595 22.547-34.985 25.743-42.634 1.902-4.551 1.17-8.966-1.836-11.071-2.639-1.849-8.922-1.828-14.033.046m-608.23 82.831c-2.786 1.298-6.753 3.84-8.815 5.651-3.372 2.961-14.024 19.843-24.01 38.054-4.181 7.623-4.706 12.821-1.61 15.917 4.878 4.878 19.693.443 27.647-8.277 2.119-2.323 8.718-12.634 14.665-22.914 8.984-15.532 10.822-19.41 10.87-22.943.045-3.237-.473-4.684-2.172-6.059-3.177-2.573-10.354-2.326-16.575.571" fill="#040404" fill-rule="evenodd"/>
</svg>
